# xmcd CD database file
#
# Track frame offsets:
#	150
#	10675
#	22866
#	36144
#	53553
#	69068
#	82560
#	99535
#	115300
#	130488
#	144680
#	158714
#	174810
#	188925
#	210430
#	227152
#	238244
#	252130
#	266202
#	281156
#
# Disc length: 4088 seconds
#
# Revision: 0
# Processed by: cddbd v1.5.2PL0 Copyright (c) Steve Scherf et al.
# Submitted via: CDex 1.51
#
DISCID=050ff614
DTITLE=Jutta Hipp Quintet - Frankfurt Special
DYEAR=1954
DGENRE=Jazz
TTITLE0=Simone
TTITLE1=Anything Goes
TTITLE2=Yogi
TTITLE3=Frankfurt Special
TTITLE4=Mon Petit (I Never Knew)
TTITLE5=Blue Skies
TTITLE6=Lover Man
TTITLE7=Diagram
TTITLE8=Cleopatra
TTITLE9=Variations
TTITLE10=Don't Worry About Me
TTITLE11=Ghost Of A Chance
TTITLE12=Laura
TTITLE13=What's New
TTITLE14=Frankfurt Special II
TTITLE15=Don't Worry About Me II
TTITLE16=Simone II
TTITLE17=Morning Fun
TTITLE18=Mon Petit (I Never Knew) II
TTITLE19=Frankfurt Special III
EXTD=YEAR: 1954
EXTT0=
EXTT1=
EXTT2=
EXTT3=
EXTT4=
EXTT5=
EXTT6=
EXTT7=
EXTT8=
EXTT9=
EXTT10=
EXTT11=
EXTT12=
EXTT13=
EXTT14=
EXTT15=
EXTT16=
EXTT17=
EXTT18=
EXTT19=
PLAYORDER=
